<svg width="36" height="36" viewBox="0 0 36 36" fill="none" xmlns="http://www.w3.org/2000/svg">
<path d="M21.75 2.25C20.0908 2.25 18.75 3.59079 18.75 5.25V12.75C18.75 14.4092 20.0908 15.75 21.75 15.75C23.4092 15.75 24.75 14.4092 24.75 12.75V5.25C24.75 3.59079 23.4092 2.25 21.75 2.25Z" fill="#EBB22D"/>
<path d="M30.75 9.75C29.0908 9.75 27.75 11.0908 27.75 12.75V15C27.75 15.4142 28.0858 15.75 28.5 15.75H30.75C32.4092 15.75 33.75 14.4092 33.75 12.75C33.75 11.0908 32.4092 9.75 30.75 9.75Z" fill="#EBB22D"/>
<path d="M14.25 20.25C12.5908 20.25 11.25 21.5908 11.25 23.25V30.75C11.25 32.4092 12.5908 33.75 14.25 33.75C15.9092 33.75 17.25 32.4092 17.25 30.75V23.25C17.25 21.5908 15.9092 20.25 14.25 20.25Z" fill="#EBB22D"/>
<path d="M5.25 20.25C3.59079 20.25 2.25 21.5908 2.25 23.25C2.25 24.9092 3.59079 26.25 5.25 26.25C6.90921 26.25 8.25 24.9092 8.25 23.25V21C8.25 20.5858 7.91421 20.25 7.5 20.25H5.25Z" fill="#EBB22D"/>
<path d="M23.25 18.75C21.5908 18.75 20.25 20.0908 20.25 21.75C20.25 23.4092 21.5908 24.75 23.25 24.75H30.75C32.4092 24.75 33.75 23.4092 33.75 21.75C33.75 20.0908 32.4092 18.75 30.75 18.75H23.25Z" fill="#EBB22D"/>
<path d="M21 27.75C20.5858 27.75 20.25 28.0858 20.25 28.5V30.75C20.25 32.4092 21.5908 33.75 23.25 33.75C24.9092 33.75 26.25 32.4092 26.25 30.75C26.25 29.0908 24.9092 27.75 23.25 27.75H21Z" fill="#EBB22D"/>
<path d="M5.25 11.25C3.59079 11.25 2.25 12.5908 2.25 14.25C2.25 15.9092 3.59079 17.25 5.25 17.25H12.75C14.4092 17.25 15.75 15.9092 15.75 14.25C15.75 12.5908 14.4092 11.25 12.75 11.25H5.25Z" fill="#EBB22D"/>
<path d="M12.75 2.25C11.0908 2.25 9.75 3.59079 9.75 5.25C9.75 6.90921 11.0908 8.25 12.75 8.25H15C15.4142 8.25 15.75 7.91421 15.75 7.5V5.25C15.75 3.59079 14.4092 2.25 12.75 2.25Z" fill="#EBB22D"/>
<path d="M14.25 20.25C12.5908 20.25 11.25 21.5908 11.25 23.25V30.75C11.25 32.4092 12.5908 33.75 14.25 33.75C15.9092 33.75 17.25 32.4092 17.25 30.75V23.25C17.25 21.5908 15.9092 20.25 14.25 20.25Z" fill="#DF1D5A"/>
<path d="M5.25 20.25C3.59079 20.25 2.25 21.5908 2.25 23.25C2.25 24.9092 3.59079 26.25 5.25 26.25C6.90921 26.25 8.25 24.9092 8.25 23.25V21C8.25 20.5858 7.91421 20.25 7.5 20.25H5.25Z" fill="#DF1D5A"/>
<path d="M5.25 11.25C3.59079 11.25 2.25 12.5908 2.25 14.25C2.25 15.9092 3.59079 17.25 5.25 17.25H12.75C14.4092 17.25 15.75 15.9092 15.75 14.25C15.75 12.5908 14.4092 11.25 12.75 11.25H5.25Z" fill="#DF1D5A"/>
<path d="M12.75 2.25C11.0908 2.25 9.75 3.59079 9.75 5.25C9.75 6.90921 11.0908 8.25 12.75 8.25H15C15.4142 8.25 15.75 7.91421 15.75 7.5V5.25C15.75 3.59079 14.4092 2.25 12.75 2.25Z" fill="#DF1D5A"/>
<path d="M21.75 2.25C20.0908 2.25 18.75 3.59079 18.75 5.25V12.75C18.75 14.4092 20.0908 15.75 21.75 15.75C23.4092 15.75 24.75 14.4092 24.75 12.75V5.25C24.75 3.59079 23.4092 2.25 21.75 2.25Z" fill="#36C5F1"/>
<path d="M30.75 9.75C29.0908 9.75 27.75 11.0908 27.75 12.75V15C27.75 15.4142 28.0858 15.75 28.5 15.75H30.75C32.4092 15.75 33.75 14.4092 33.75 12.75C33.75 11.0908 32.4092 9.75 30.75 9.75Z" fill="#36C5F1"/>
<path d="M5.25 11.25C3.59079 11.25 2.25 12.5908 2.25 14.25C2.25 15.9092 3.59079 17.25 5.25 17.25H12.75C14.4092 17.25 15.75 15.9092 15.75 14.25C15.75 12.5908 14.4092 11.25 12.75 11.25H5.25Z" fill="#36C5F1"/>
<path d="M12.75 2.25C11.0908 2.25 9.75 3.59079 9.75 5.25C9.75 6.90921 11.0908 8.25 12.75 8.25H15C15.4142 8.25 15.75 7.91421 15.75 7.5V5.25C15.75 3.59079 14.4092 2.25 12.75 2.25Z" fill="#36C5F1"/>
<path d="M21.75 2.25C20.0908 2.25 18.75 3.59079 18.75 5.25V12.75C18.75 14.4092 20.0908 15.75 21.75 15.75C23.4092 15.75 24.75 14.4092 24.75 12.75V5.25C24.75 3.59079 23.4092 2.25 21.75 2.25Z" fill="#2DB67E"/>
<path d="M30.75 9.75C29.0908 9.75 27.75 11.0908 27.75 12.75V15C27.75 15.4142 28.0858 15.75 28.5 15.75H30.75C32.4092 15.75 33.75 14.4092 33.75 12.75C33.75 11.0908 32.4092 9.75 30.75 9.75Z" fill="#2DB67E"/>
</svg>
