<svg width="40" height="40" viewBox="0 0 40 40" fill="none" xmlns="http://www.w3.org/2000/svg">
<g opacity="0.4">
<path d="M24.0317 9.15025C23.2383 9.00368 22.5097 9.51 22.3586 10.2845C22.2076 11.0589 22.7155 11.8151 23.4873 11.9666C25.8111 12.4197 27.6054 14.2184 28.0602 16.5502V16.5518C28.1896 17.223 28.7805 17.711 29.4611 17.711C29.5524 17.711 29.6436 17.7027 29.7366 17.6861C30.5084 17.5312 31.0163 16.7767 30.8653 16.0005C30.1864 12.5179 27.5058 9.82812 24.0317 9.15025Z" fill="#1777E5"/>
<path d="M23.9271 3.34671C23.5553 3.29342 23.1818 3.40334 22.8847 3.63984C22.5793 3.87968 22.3884 4.22611 22.3469 4.61418C22.2589 5.39864 22.8249 6.10815 23.6084 6.19642C29.0111 6.79934 33.2105 11.0081 33.818 16.4277C33.8994 17.1539 34.5085 17.7019 35.2355 17.7019C35.2903 17.7019 35.3434 17.6985 35.3982 17.6919C35.7783 17.6502 36.1169 17.462 36.3559 17.1622C36.5933 16.8624 36.7012 16.4894 36.658 16.1079C35.9011 9.34593 30.6677 4.09786 23.9271 3.34671Z" fill="#1777E5"/>
</g>
<path fill-rule="evenodd" clip-rule="evenodd" d="M18.3869 21.6206C25.0354 28.2673 26.5436 20.5779 30.7767 24.808C34.8578 28.8879 37.2033 29.7053 32.0327 34.8745C31.385 35.395 27.27 41.6571 12.8083 27.1994C-1.65515 12.74 4.60329 8.62074 5.12393 7.97325C10.3071 2.78974 11.1104 5.14897 15.1915 9.22888C19.4246 13.4608 11.7384 14.974 18.3869 21.6206Z" fill="#1777E5"/>
</svg>
