<svg width="40" height="40" viewBox="0 0 40 40" fill="none" xmlns="http://www.w3.org/2000/svg">
<path d="M35.713 4.29733C34.8797 3.44566 33.6464 3.13066 32.4964 3.46399L5.67968 11.2123C4.46635 11.549 3.60635 12.5107 3.37468 13.7307C3.13802 14.974 3.96468 16.554 5.04468 17.214L13.4297 22.334C14.2897 22.8607 15.3997 22.729 16.1114 22.0157L25.713 12.414C26.1964 11.9123 26.9964 11.9123 27.4797 12.414C27.963 12.8957 27.963 13.6807 27.4797 14.1807L17.8614 23.7823C17.148 24.4957 17.0147 25.6023 17.5397 26.464L22.663 34.8807C23.263 35.879 24.2964 36.4473 25.4297 36.4473C25.563 36.4473 25.713 36.4473 25.8464 36.429C27.1464 36.264 28.1797 35.379 28.563 34.129L36.513 7.51399C36.863 6.38066 36.5464 5.14733 35.713 4.29733Z" fill="#1777E5"/>
<path opacity="0.4" d="M15.754 31.9039C16.2406 32.3923 16.2406 33.184 15.754 33.6723L13.4773 35.9473C13.2339 36.1923 12.914 36.3139 12.594 36.3139C12.274 36.3139 11.9539 36.1923 11.7106 35.9473C11.2223 35.459 11.2223 34.6689 11.7106 34.1806L13.9856 31.9039C14.474 31.4173 15.2656 31.4173 15.754 31.9039ZM14.4478 25.5906C14.9345 26.0789 14.9345 26.8706 14.4478 27.3589L12.1711 29.6339C11.9278 29.8789 11.6078 30.0006 11.2878 30.0006C10.9678 30.0006 10.6478 29.8789 10.4044 29.6339C9.91612 29.1456 9.91612 28.3556 10.4044 27.8673L12.6795 25.5906C13.1678 25.1039 13.9595 25.1039 14.4478 25.5906ZM8.17912 23.6033C8.66578 24.0916 8.66578 24.8833 8.17912 25.3716L5.90245 27.6466C5.65912 27.8916 5.33912 28.0133 5.01912 28.0133C4.69911 28.0133 4.37911 27.8916 4.13578 27.6466C3.64745 27.1583 3.64745 26.3683 4.13578 25.8799L6.41078 23.6033C6.89912 23.1166 7.69078 23.1166 8.17912 23.6033Z" fill="#1777E5"/>
</svg>
