<svg width="48" height="48" viewBox="0 0 48 48" fill="none" xmlns="http://www.w3.org/2000/svg">
<path d="M24 5.24997C34.3553 5.24997 42.75 13.6446 42.75 24C42.75 34.3553 34.3553 42.75 24 42.75C13.6447 42.75 5.25 34.3553 5.25 24C5.25 13.6446 13.6447 5.24997 24 5.24997Z" fill="#1777E5" stroke="#1777E5" stroke-width="1.5" stroke-linecap="round" stroke-linejoin="round"/>
<path d="M17.25 19.25C17.8023 19.25 18.25 19.6977 18.25 20.25C18.25 20.8023 17.8023 21.25 17.25 21.25C16.6977 21.25 16.25 20.8023 16.25 20.25C16.25 19.6977 16.6977 19.25 17.25 19.25Z" fill="white" stroke="white" stroke-width="2.5"/>
<path d="M30.75 19.25C31.3023 19.25 31.75 19.6977 31.75 20.25C31.75 20.8023 31.3023 21.25 30.75 21.25C30.1977 21.25 29.75 20.8023 29.75 20.25C29.75 19.6977 30.1977 19.25 30.75 19.25Z" fill="white" stroke="white" stroke-width="2.5"/>
<path d="M31.8012 28.5C31.0082 29.8661 29.8704 31 28.5015 31.7882C27.1326 32.5764 25.5808 32.9913 24.0012 32.9913C22.4216 32.9913 20.8697 32.5764 19.5008 31.7882C18.132 31 16.9941 29.8661 16.2012 28.5" stroke="white" stroke-width="2.5" stroke-linecap="round" stroke-linejoin="round"/>
</svg>
